<?xml version="1.0" encoding="utf-8"?>
<!-- Generator: Adobe Illustrator 23.0.4, SVG Export Plug-In . SVG Version: 6.00 Build 0)  -->
<svg version="1.1" id="Layer_2" 
	xmlns="http://www.w3.org/2000/svg" 
	xmlns:xlink="http://www.w3.org/1999/xlink" x="0px" y="0px" viewBox="0 0 480.84 473.83" style="enable-background:new 0 0 480.84 473.83;" xml:space="preserve">
	<style type="text/css">
	.st0{display:none;}
	.st1{display:inline;fill:none;}
	.st2{display:inline;}
	.st3{fill:#2469a0;}
	</style>
	<g class="st0">
		<path id="SVGID_x5F_1_x5F_" class="st1" d="M46.63,489.83c0-121.56,98.54-220.1,220.1-220.1s220.1,98.54,220.1,220.1"/>
		<text class="st2">
			<textPath xlink:href="#SVGID_x5F_1_x5F_" startOffset="0%">
				<tspan class="st3" style="font-family:'Montserrat-Bold'; font-size:55px;">INTERMUN</tspan>
			</textPath>
		</text>
	</g>
	<g>
		<g>
			<path class="st3" d="M80.06,57.13l7.07-5.42l23.41,30.57l-7.07,5.42L80.06,57.13z"/>
			<path class="st3" d="M128.25,26.24l19.06,33.45l-6.36,3.62L112.7,52.5l11.57,20.31l-7.65,4.36L97.57,43.72l6.4-3.65l28.2,10.84
			L120.6,30.6L128.25,26.24z"/>
			<path class="st3" d="M151.3,24.83l-11.59,4.18l-2.46-6.83l31.56-11.37l2.46,6.83l-11.59,4.18l10.59,29.39l-8.38,3.02L151.3,24.83z
			"/>
			<path class="st3" d="M213.09,33.68l1.35,7.02l-29.27,5.64l-7.28-37.8l28.57-5.5l1.35,7.02l-19.87,3.83l1.58,8.21l17.55-3.38
			l1.31,6.8l-17.55,3.38l1.69,8.75L213.09,33.68z"/>
			<path class="st3" d="M244.55,39.59l-7.67-10.56l-0.44,0.01l-7.75,0.17l0.24,10.72l-8.91,0.2l-0.87-38.5l16.66-0.37
			c10.28-0.23,16.84,4.96,17.03,13.59c0.13,5.77-2.69,10.07-7.65,12.33l8.91,12.18L244.55,39.59z M235.49,8.54l-7.26,0.16l0.3,13.42
			l7.26-0.16c5.44-0.12,8.14-2.71,8.04-6.89C243.74,10.83,240.94,8.42,235.49,8.54z"/>
			<path class="st3" d="M293.13,45.59l4.04-22.74l-14.52,16.72l-3.95-0.71l-7.81-20.24l-4.01,22.24l-8.23-1.48l6.83-37.89l7.25,1.31
			l9.94,26.1l18.21-21.03l7.2,1.3l-6.72,37.91L293.13,45.59z"/>
			<path class="st3" d="M314.32,33.76l8.16-19.95l8.25,3.37l-8.04,19.65c-2.77,6.77-0.96,10.78,4.03,12.82
			c5.04,2.06,9.09,0.45,11.86-6.32l8.04-19.65l8.14,3.33l-8.17,19.95c-4.29,10.49-12.67,13.83-22.8,9.69
			C313.66,52.51,310.03,44.25,314.32,33.76z"/>
			<path class="st3" d="M397.12,53.09l-21.11,32.2l-6.12-4.01l-3.24-30.08l-12.81,19.55l-7.36-4.82l21.11-32.2l6.16,4.04l3.2,30.04
			l12.81-19.55L397.12,53.09z"/>
		</g>
	</g>
	<g>
		<path class="st3" d="M176.1,466c0,0,53.19-54.27,100.44-44.83s70.32,36.19,109.51,12.74c0,0-35.21,49.41-94.19,9.12
		c-13.14-8.98-22.34-17.06-34.6-16.14c-37.88,2.85-70.24,46.94-70.24,46.94L176.1,466z"/>
		<path class="st3" d="M303.68,466c0,0-53.19-54.27-100.44-44.83s-70.32,36.19-109.51,12.74c0,0,35.21,49.41,94.19,9.12
		c13.14-8.98,22.34-17.06,34.6-16.14c37.88,2.85,70.24,46.94,70.24,46.94L303.68,466z"/>
		<g>
			<g>
				<path class="st3" d="M366.74,432.23c-32.37,1.01-53.05-11.47-71.15-11.48c0,0,26.39-2.96,47.07-26.49
				c20.67-23.54,34.53-30.22,34.53-30.22c-1.73-0.01-12.75,25.5-24.92,41.46c-6.87,9.01-16.96,11.32-23.03,12.73
				c0,0,15.24-2.37,33.38-4.18c9.51-0.95,20.12-0.87,29.09-2.85c20.35-4.51,31.34-13.06,33.84-17.41c0,0-5.01,10.84-15.33,20.15
				C399.52,423.59,383.21,431.72,366.74,432.23z"/>
				<path class="st3" d="M424.5,388.92c-28.75,14.84-52.82,12.49-69.15,20.27c0,0,22.51-14.03,30.93-44.15s18.01-42.11,18.01-42.11
				c-1.56,0.73-0.42,28.48-4.46,48.11c-2.28,11.08-10.37,17.51-15.23,21.4c0,0,12.71-8.7,28.29-18.14
				c8.16-4.95,17.77-9.44,24.99-15.09c16.39-12.82,22.59-25.27,22.95-30.26c0,0,0.19,11.93-5.07,24.76
				C450.31,367.02,439.14,381.37,424.5,388.92z"/>
				<path class="st3" d="M461.06,330.17c-22.48,23.21-46.04,28.64-59.02,41.21c0,0,16.83-20.45,15.14-51.68s3.55-45.63,3.55-45.63
				c-1.24,1.19,8.74,27.12,11.21,47.01c1.39,11.22-4.21,19.89-7.57,25.12c0,0,9.26-12.29,20.98-26.19
				c6.15-7.28,13.81-14.6,18.83-22.25c11.42-17.37,13.29-31.13,12.04-35.97c0,0,4.01,11.24,3.14,25.08
				C478.48,301.21,472.5,318.36,461.06,330.17z"/>
				<path class="st3" d="M467.74,193.34c-2.74,29.02-16.11,46.12-18.15,62.29c0,0,0.34-23.9-18.19-44.96s-22.89-34.17-22.89-34.17
				c-0.2,1.54,21.15,14.2,33.92,26.82c7.21,7.13,8.12,16.39,8.7,21.97c0,0-0.39-13.87,0.04-30.28c0.23-8.6,1.49-18.07,0.74-26.29
				c-1.71-18.67-8.05-29.43-11.62-32.14c0,0,9.04,5.67,16.12,15.91C463.76,163.11,469.13,178.57,467.74,193.34z"/>
				<path class="st3" d="M475.33,264.23c-12.61,26.31-31.08,37.78-38.59,52.25c0,0,8.59-22.32-1.51-48.44
				c-10.1-26.12-9.66-39.93-9.66-39.93c-0.72,1.38,14.94,20.58,22.56,36.82c4.3,9.16,1.95,18.18,0.56,23.61
				c0,0,4.43-13.16,10.52-28.41c3.19-7.99,7.65-16.45,9.79-24.43c4.86-18.12,2.62-30.39,0.21-34.16c0,0,6.52,8.42,9.63,20.47
				C482.06,234.48,481.75,250.84,475.33,264.23z"/>
				<path class="st3" d="M438.8,134.27c7.06,26.85,0.29,46.57,3.74,61.69c0,0-7.59-21.48-31.77-34.16
				c-24.18-12.68-32.57-22.96-32.57-22.96c0.32,1.44,24.35,5.68,40.4,12.74c9.06,3.98,12.97,11.96,15.35,16.76
				c0,0-4.95-12.27-9.98-27.08c-2.63-7.76-4.59-16.65-8.02-23.75c-7.77-16.12-17.22-23.64-21.43-24.88c0,0,10.27,2.07,20.25,8.88
				C425.1,108.57,435.21,120.6,438.8,134.27z"/>
				<path class="st3" d="M353.59,88.77c0.58,0.13,48.21,1.91,64.91,55.42c0,0-14.08-6.86-20.47-12.27
				c-6.13-5.2-29.39-29.78-29.39-29.78L353.59,88.77z"/>
			</g>
		</g>
		<g>
			<g>
				<path class="st3" d="M114.11,432.23c32.37,1.01,53.05-11.47,71.15-11.48c0,0-26.39-2.96-47.07-26.49
				c-20.67-23.54-34.53-30.22-34.53-30.22c1.73-0.01,12.75,25.5,24.92,41.46c6.87,9.01,16.96,11.32,23.03,12.73
				c0,0-15.24-2.37-33.38-4.18c-9.51-0.95-20.12-0.87-29.09-2.85c-20.35-4.51-31.34-13.06-33.84-17.41c0,0,5.01,10.84,15.33,20.15
				C81.33,423.59,97.63,431.72,114.11,432.23z"/>
				<path class="st3" d="M56.34,388.92c28.75,14.84,52.82,12.49,69.15,20.27c0,0-22.51-14.03-30.93-44.15s-18.01-42.11-18.01-42.11
				c1.56,0.73,0.42,28.48,4.46,48.11c2.28,11.08,10.37,17.51,15.23,21.4c0,0-12.71-8.7-28.29-18.14
				c-8.16-4.95-17.77-9.44-24.99-15.09c-16.39-12.82-22.59-25.27-22.95-30.26c0,0-0.19,11.93,5.07,24.76
				C30.54,367.02,41.71,381.37,56.34,388.92z"/>
				<path class="st3" d="M19.79,330.17c22.48,23.21,46.04,28.64,59.02,41.21c0,0-16.83-20.45-15.14-51.68
				c1.69-31.22-3.55-45.63-3.55-45.63c1.24,1.19-8.74,27.12-11.21,47.01c-1.39,11.22,4.21,19.89,7.57,25.12
				c0,0-9.26-12.29-20.98-26.19c-6.15-7.28-13.81-14.6-18.83-22.25C5.23,280.39,3.35,266.63,4.61,261.79c0,0-4.01,11.24-3.14,25.08
				C2.37,301.21,8.35,318.36,19.79,330.17z"/>
				<path class="st3" d="M13.1,193.34c2.74,29.02,16.11,46.12,18.15,62.29c0,0-0.34-23.9,18.19-44.96s22.89-34.17,22.89-34.17
				c0.2,1.54-21.15,14.2-33.92,26.82c-7.21,7.13-8.12,16.39-8.7,21.97c0,0,0.39-13.87-0.04-30.28c-0.23-8.6-1.49-18.07-0.74-26.29
				c1.71-18.67,8.05-29.43,11.62-32.14c0,0-9.04,5.67-16.12,15.91C17.09,163.11,11.71,178.57,13.1,193.34z"/>
				<path class="st3" d="M5.51,264.23C18.12,290.54,36.59,302,44.1,316.48c0,0-8.59-22.32,1.51-48.44
				c10.1-26.12,9.66-39.93,9.66-39.93c0.72,1.38-14.94,20.58-22.56,36.82c-4.3,9.16-1.95,18.18-0.56,23.61
				c0,0-4.43-13.16-10.52-28.41c-3.19-7.99-7.65-16.45-9.79-24.43c-4.86-18.12-2.62-30.39-0.21-34.16c0,0-6.52,8.42-9.63,20.47
				C-1.21,234.48-0.91,250.84,5.51,264.23z"/>
				<path class="st3" d="M42.04,134.27c-7.06,26.85-0.29,46.57-3.74,61.69c0,0,7.59-21.48,31.77-34.16s32.57-22.96,32.57-22.96
				c-0.32,1.44-24.35,5.68-40.4,12.74c-9.06,3.98-12.97,11.96-15.35,16.76c0,0,4.95-12.27,9.98-27.08
				c2.63-7.76,4.59-16.65,8.02-23.75c7.77-16.12,17.22-23.64,21.43-24.88c0,0-10.27,2.07-20.25,8.88
				C55.75,108.57,45.64,120.6,42.04,134.27z"/>
				<path class="st3" d="M127.25,88.77c-0.58,0.13-48.21,1.91-64.91,55.42c0,0,14.08-6.86,20.47-12.27
				c6.13-5.2,29.39-29.78,29.39-29.78L127.25,88.77z"/>
			</g>
		</g>
	</g>
	<g>
		<polygon class="st3" points="242.01,59.15 245.59,66.41 253.6,67.57 247.8,73.22 249.17,81.19 242.01,77.43 234.85,81.19 
		236.21,73.22 230.42,67.57 238.43,66.41 	"/>
		<polygon class="st3" points="291.31,65.63 292.92,73.56 300.36,76.73 293.32,80.71 292.61,88.77 286.64,83.3 278.76,85.12 
		282.12,77.75 277.96,70.81 285.99,71.73 	"/>
		<polygon class="st3" points="337.77,84.57 337.36,92.65 343.79,97.57 335.98,99.68 333.29,107.31 328.87,100.53 320.78,100.33 
		325.86,94.03 323.55,86.28 331.11,89.16 	"/>
		<polygon class="st3" points="190.1,65.63 188.49,73.56 181.04,76.73 188.09,80.71 188.8,88.77 194.76,83.3 202.65,85.12 
		199.29,77.75 203.45,70.81 195.41,71.73 	"/>
		<polygon class="st3" points="143.64,84.57 144.04,92.65 137.62,97.57 145.43,99.68 148.12,107.31 152.54,100.53 160.63,100.33 
		155.55,94.03 157.86,86.28 150.3,89.16 	"/>
	</g>
	<g>
		<path class="st3" d="M240.98,90.9c-89.43,0-162.18,72.76-162.18,162.19c0,77.22,54.24,142.02,126.63,158.26l0.77-7
		c-27.81-6.39-52.78-20.27-72.68-39.41l20.64-20.57c15.27,14.62,34.18,25.46,55.22,31c0.12,0.03,0.24,0.07,0.36,0.1l0.74-7.06
		c-0.11-0.02-0.22-0.05-0.33-0.09c-19.41-5.29-36.87-15.38-51.03-28.89L178.61,320c9.77,9.21,21.54,16.29,34.59,20.53
		c0.07,0.03,0.14,0.05,0.21,0.07l0.75-7.13c-0.06-0.02-0.12-0.04-0.18-0.06c-11.43-3.94-21.77-10.25-30.42-18.35l19.77-19.7
		c4.1,3.72,8.76,6.84,13.82,9.22c0.02,0.01,0.03,0.02,0.05,0.02l0.47-4.51c-0.01-0.01-0.02-0.01-0.03-0.01
		c-4.1-2.08-7.89-4.69-11.28-7.74l3.54-3.53l8.43,5.01l1.65-15.06l0.72-6.55l-0.79-0.44l-16.15-8.95l-3.79-6.55h22.48l0.55-5h-25.92
		l-6.23-10.76c2.14-8.1,6.2-15.42,11.65-21.47l21.7,21.26l0.69-6.32l-18.87-18.49c2.88-2.63,6.05-4.94,9.46-6.87l10.43,16.08
		l2.33-21.22l0.5-4.51c-1.45,0.32-2.88,0.7-4.28,1.14l-23.02-22.02c9.31-5.02,19.66-8.35,30.64-9.58c0.03,0,0.07-0.01,0.11-0.01
		l0.48-4.27l3.34-3.07c-0.03-0.01-0.05-0.01-0.08,0c-22.78,1.38-43.34,11.1-58.68,26.14l-19.64-19.25
		c21.03-20.81,49.73-33.88,81.43-34.55v24.87l2.44-2.25v11.86l0.01,29.65v4.27l0.01,48.34v7.02l0.03,0.02l-0.03,0.03l0.01,48.32
		l0.01,4.27v35.12l0.01,27.51v7l0.01,28.75v7c89.17-0.3,161.63-72.95,161.63-162.19C403.17,163.66,330.41,90.9,240.98,90.9z
		 M228.23,203.48l-0.02,0.22l-0.17-0.17C228.1,203.51,228.17,203.5,228.23,203.48z M128.38,146.42l20.74,20.32
		c-20.74,22.22-33.59,51.91-34.03,84.53H85.81C86.28,210.7,102.39,173.83,128.38,146.42z M129.96,361.42
		c-26.62-27.28-43.3-64.3-44.13-105.15h29.29c0.84,32.79,14.21,62.53,35.5,84.57L129.96,361.42z M155.58,335.89
		c-20.04-20.77-32.62-48.75-33.45-79.62h27.52c0.28,8.03,1.59,15.79,3.82,23.17l-1.31,0.48l-8.81,11.1l13.39-2.45
		c4.38,10.41,10.62,19.86,18.31,27.91L155.58,335.89z M156.66,256.27h26.87l2.04,6.4l1.41,4.43l-0.47,0.17l-26.46,9.75
		C158.09,270.4,156.92,263.45,156.66,256.27z M197.06,281.18l8.4,4.99l-2.66,2.65c-2.16-2.35-4.11-4.91-5.81-7.63L197.06,281.18z
		 M192.5,282.02c2.07,3.54,4.51,6.83,7.27,9.82l-19.76,19.7c-6.71-7.05-12.22-15.25-16.2-24.27L192.5,282.02z M200.97,178.34
		l2.34,11.51l9.84,15.18c-3.67,2.11-7.09,4.62-10.18,7.47l-20.72-20.3C187.8,186.77,194.1,182.09,200.97,178.34z M178.77,195.79
		l20.67,20.26c-5.05,5.57-9.01,12.16-11.51,19.41l-12.3-21.27l-1.68,11.95l7.99,25.13h-25.33
		C157.04,229.94,165.35,210.51,178.77,195.79z M173.77,190.89c-14.65,15.98-23.73,37.14-24.16,60.38H122.1
		c0.43-30.73,12.51-58.68,32.02-79.63L173.77,190.89z M239.04,126.5c-33.66,0.67-64.13,14.55-86.44,36.65l-20.73-20.31
		c27.63-27.35,65.44-44.41,107.17-44.93V126.5z M396.16,251.27h-28.04c-0.45-33.06-13.63-63.1-34.87-85.42l19.92-19.86
		C379.41,173.45,395.69,210.49,396.16,251.27z M289.62,281.83l29.78,5.44c-3.9,8.84-9.27,16.89-15.79,23.84l-20.58-20.16
		C285.52,288.15,287.73,285.09,289.62,281.83z M279.98,287.96l-2.06-2.02l6.56-3.9C283.12,284.12,281.62,286.1,279.98,287.96z
		 M303.85,195.15c13.75,14.79,22.32,34.47,22.75,56.12h-25.55l7.99-25.16l-1.68-11.95l-12.92,22.37c-2.46-7.6-6.49-14.5-11.73-20.3
		L303.85,195.15z M279.2,212.66c-2.94-2.74-6.17-5.16-9.64-7.22l10.11-15.61l2.36-11.6c6.7,3.63,12.85,8.14,18.31,13.36
		L279.2,212.66z M326.55,256.27c-0.27,7.19-1.44,14.15-3.4,20.78l-27.12-9.97l3.43-10.81H326.55z M326.47,288.56l13.21,2.41
		l-8.82-11.09l-1.12-0.41c2.22-7.39,3.54-15.16,3.82-23.2h27.52c-0.82,30.55-13.16,58.28-32.83,78.98L308.61,316
		C316.09,308.05,322.18,298.77,326.47,288.56z M333.6,251.27c-0.43-23.57-9.77-45-24.79-61.06l19.48-19.42
		c19.97,21.05,32.38,49.34,32.82,80.48H333.6z M244.04,97.93c41.07,0.8,78.29,17.63,105.63,44.49l-19.93,19.87
		c-22.26-21.63-52.43-35.16-85.7-35.8V97.93z M244.04,158.47V133.5c31.34,0.63,59.75,13.38,80.73,33.74l-19.47,19.41
		c-15.34-14.74-35.77-24.22-58.36-25.51L244.04,158.47z M250.78,168.48c11.05,1.18,21.47,4.5,30.84,9.53l-23.34,22.34
		c-1.33-0.44-2.67-0.82-4.04-1.15L250.78,168.48z M257.06,224.74l10.18-15.71c3.22,1.89,6.22,4.12,8.94,6.64l-18.13,18.08
		L257.06,224.74z M258.75,240.12v-0.01l20.94-20.87c5.63,6.3,9.74,13.97,11.76,22.45l-5.53,9.58h-25.95L258.75,240.12z
		 M262.27,272.23l-0.2-1.82v-0.01l-1.55-14.13h22.51l-3.78,6.54l-15.92,8.83L262.27,272.23z M264.64,293.84l8.84-5.25l3.03,2.97
		c-3.36,3.15-7.15,5.87-11.26,8.05L264.64,293.84z M265.74,304.16c5.09-2.51,9.74-5.76,13.82-9.62l20.52,20.12
		c-8.83,8.37-19.45,14.88-31.22,18.87L265.74,304.16z M269.61,340.66c13.42-4.29,25.51-11.59,35.47-21.1l19.65,19.24
		c-14.38,13.95-32.25,24.32-52.16,29.66L269.61,340.66z M276.36,404.21l-3.04-28.71c21.56-5.58,40.91-16.72,56.41-31.79l20.2,19.79
		C329.93,383.24,304.62,397.6,276.36,404.21z M353.43,359.92l-20.18-19.77c20.91-21.97,34.01-51.43,34.84-83.88h28.05
		C395.33,296.38,379.22,332.8,353.43,359.92z"/>
	</g>
	<g>
		<path class="st3" d="M100.06,224.02c0.48-1.06,1.95-1.44,14.51-1.13c13.49,0.33,15.82,0.86,18.42,2.22
		c2.28,1.19,7.74,4.03,8.51,9.49c0.71,5.04-3.06,8.87-3.38,9.18c-4.81,4.73-12.18,3.12-13.71,2.78c-4.2-0.92-7.44-3.83-13.73-9.62
		C103.1,229.96,99.06,226.24,100.06,224.02z"/>
		<path class="st3" d="M378.19,226.39c-0.38-1.1-1.82-1.61-14.35-2.43c-13.46-0.88-15.83-0.56-18.54,0.56
		c-2.37,0.98-8.07,3.32-9.33,8.69c-1.16,4.96,2.26,9.11,2.54,9.45c4.37,5.14,11.85,4.2,13.41,4c4.27-0.54,7.75-3.15,14.53-8.35
		C374.62,232.03,378.99,228.69,378.19,226.39z"/>
		<path class="st3" d="M159.12,132.31c1-0.58,2.42-0.04,12.47,7.5c10.79,8.09,12.39,9.88,13.72,12.49c1.17,2.29,3.96,7.77,1.43,12.67
		c-2.35,4.52-7.64,5.45-8.08,5.52c-6.66,1.06-11.73-4.52-12.78-5.69c-2.89-3.19-3.83-7.44-5.6-15.8
		C158.15,138.92,157.01,133.54,159.12,132.31z"/>
		<path class="st3" d="M242.05,113.59c0.82,0.03,1.42,0.8,4.23,8.11c3.02,7.86,3.23,9.33,2.96,11.14c-0.24,1.59-0.8,5.39-4.22,7.09
		c-3.16,1.57-6.6,0.27-6.88,0.16c-4.28-1.69-4.99-6.31-5.13-7.27c-0.4-2.64,0.74-5.17,3.06-10.13
		C238.85,116.71,240.34,113.52,242.05,113.59z"/>
		<path class="st3" d="M319.98,130.1c1.01,0.58,1.24,2.08-0.3,14.55c-1.65,13.39-2.41,15.66-4.02,18.11
		c-1.4,2.15-4.77,7.3-10.28,7.53c-5.09,0.21-8.53-3.92-8.81-4.26c-4.23-5.25-1.91-12.42-1.42-13.92c1.33-4.09,4.55-7.02,10.93-12.71
		C313.76,132.54,317.86,128.88,319.98,130.1z"/>
		<path class="st3" d="M207.1,141.2c0.51-0.16,1.06,0.19,4.53,4.24c3.73,4.35,4.2,5.24,4.46,6.46c0.23,1.07,0.78,3.62-0.93,5.47
		c-1.58,1.71-4.01,1.64-4.21,1.63c-3.04-0.13-4.57-2.92-4.89-3.51c-0.87-1.6-0.76-3.47-0.51-7.16
		C205.86,143.9,206.03,141.53,207.1,141.2z"/>
		<path class="st3" d="M275.98,141.2c-0.51-0.16-1.06,0.19-4.53,4.24c-3.73,4.35-4.2,5.24-4.46,6.46c-0.23,1.07-0.78,3.62,0.93,5.47
		c1.58,1.71,4.01,1.64,4.21,1.63c3.04-0.13,4.57-2.92,4.89-3.51c0.87-1.6,0.76-3.47,0.51-7.16
		C277.22,143.9,277.05,141.53,275.98,141.2z"/>
		<path class="st3" d="M341.64,192.71c-0.37-0.39-1.03-0.34-6.01,1.56c-5.35,2.04-6.2,2.59-7.01,3.53c-0.71,0.83-2.42,2.81-1.8,5.25
		c0.57,2.26,2.74,3.36,2.92,3.45c2.73,1.34,5.41-0.38,5.97-0.74c1.53-0.98,2.33-2.68,3.87-6.04
		C341.43,195.68,342.42,193.52,341.64,192.71z"/>
		<path class="st3" d="M142.67,192.71c0.37-0.39,1.03-0.34,6.01,1.56c5.35,2.04,6.2,2.59,7.01,3.53c0.71,0.83,2.42,2.81,1.8,5.25
		c-0.57,2.26-2.74,3.36-2.92,3.45c-2.73,1.34-5.41-0.38-5.97-0.74c-1.53-0.98-2.33-2.68-3.87-6.04
		C142.88,195.68,141.89,193.52,142.67,192.71z"/>
		<path class="st3" d="M151.06,340.23c-0.72-0.91-0.38-2.39,5.66-13.4c6.49-11.83,8.03-13.66,10.43-15.34
		c2.1-1.48,7.13-5.02,12.34-3.2c4.81,1.68,6.47,6.8,6.6,7.22c1.99,6.45-2.82,12.25-3.83,13.46c-2.75,3.31-6.82,4.84-14.85,7.77
		C157.73,340.26,152.57,342.14,151.06,340.23z"/>
		<path class="st3" d="M128.58,280.76c0.01-0.54,0.52-0.95,5.46-2.96c5.3-2.17,6.3-2.34,7.54-2.2c1.08,0.12,3.68,0.4,4.9,2.61
		c1.12,2.04,0.29,4.32,0.22,4.51c-1.08,2.85-4.22,3.42-4.87,3.54c-1.79,0.33-3.53-0.37-6.95-1.77
		C130.76,282.79,128.56,281.88,128.58,280.76z"/>
		<path class="st3" d="M136.86,304.21c0.2,0.5,0.82,0.7,6.15,0.84c5.73,0.15,6.72-0.05,7.83-0.61c0.97-0.49,3.3-1.68,3.66-4.18
		c0.33-2.3-1.26-4.15-1.39-4.3c-2.02-2.28-5.15-1.7-5.81-1.58c-1.79,0.33-3.17,1.6-5.87,4.12
		C138.18,301.54,136.44,303.17,136.86,304.21z"/>
		<path class="st3" d="M354.69,280.76c-0.01-0.54-0.52-0.95-5.46-2.96c-5.3-2.17-6.3-2.34-7.54-2.2c-1.08,0.12-3.68,0.4-4.9,2.61
		c-1.12,2.04-0.29,4.32-0.22,4.51c1.08,2.85,4.22,3.42,4.87,3.54c1.79,0.33,3.53-0.37,6.95-1.77
		C352.51,282.79,354.71,281.88,354.69,280.76z"/>
		<path class="st3" d="M346.41,304.21c-0.2,0.5-0.82,0.7-6.15,0.84c-5.73,0.15-6.72-0.05-7.83-0.61c-0.97-0.49-3.3-1.68-3.66-4.18
		c-0.33-2.3,1.26-4.15,1.39-4.3c2.02-2.28,5.15-1.7,5.81-1.58c1.79,0.33,3.17,1.6,5.87,4.12
		C345.09,301.54,346.83,303.17,346.41,304.21z"/>
		<path class="st3" d="M332.04,337.82c0.72-0.92,0.36-2.4-5.74-13.37c-6.56-11.79-8.12-13.61-10.52-15.28
		c-2.11-1.46-7.16-4.98-12.36-3.12c-4.8,1.71-6.43,6.84-6.56,7.26c-1.95,6.46,2.9,12.23,3.91,13.44c2.77,3.3,6.85,4.8,14.9,7.68
		C325.37,337.89,330.54,339.74,332.04,337.82z"/>
	</g>
</svg>
